<svg xmlns="http://www.w3.org/2000/svg" width="41" height="41" viewBox="0 0 41 41" fill="none">
  <g clip-path="url(#clip0_12_389)">
    <path fill-rule="evenodd" clip-rule="evenodd" d="M41 20.5C41 31.8199 31.8199 41 20.5 41C9.18008 41 0 31.8199 0 20.5C0 9.18008 9.18008 0 20.5 0C31.8199 0 41 9.18008 41 20.5Z" fill="#29296E"/>
    <path fill-rule="evenodd" clip-rule="evenodd" d="M30.1047 15.0278L29.582 13.427C29.484 13.1003 29.2227 12.8553 28.896 12.741L27.2952 12.2509C27.0665 12.1856 27.0665 11.8752 27.2952 11.7936L28.896 11.2709C29.2227 11.1729 29.4677 10.9115 29.582 10.5848L30.0721 8.98401C30.1374 8.75533 30.4478 8.75533 30.5294 8.98401L31.0521 10.5848C31.1502 10.9115 31.4115 11.1565 31.7382 11.2709L33.339 11.7609C33.5677 11.8262 33.5677 12.1366 33.339 12.2183L31.7382 12.741C31.4115 12.839 31.1665 13.1003 31.0521 13.427L30.5621 15.0278C30.4804 15.2402 30.1701 15.2402 30.1047 15.0278Z" fill="#FAFAFA"/>
    <path fill-rule="evenodd" clip-rule="evenodd" d="M1.79675 20.1733C2.28679 19.2096 3.25054 18.4745 4.26329 18.0171C5.27604 17.5598 6.38679 17.2821 7.48122 17.2004C9.68639 17.0044 11.8426 17.3637 13.8027 18.0171C14.8155 18.3275 15.7139 18.7359 16.645 19.1606C17.1023 19.3729 17.527 19.6343 17.9681 19.8793L19.1768 20.5817C20.5163 21.3984 21.8067 22.1335 23.0155 22.7052C24.2406 23.2606 25.335 23.6526 26.3641 23.8486C27.3932 24.0446 28.4549 24.0446 29.7454 23.7506C31.0358 23.4566 32.4732 22.8195 33.9924 22.0191C35.5115 21.2024 37.0796 20.206 38.8601 19.2422C38.6804 21.2677 38.1087 23.1789 37.2266 25.0247C36.3119 26.8378 35.0378 28.6183 33.192 30.0558C31.3788 31.5096 28.8796 32.506 26.3477 32.6693C23.7995 32.849 21.3983 32.2773 19.3402 31.4279C17.282 30.5621 15.4852 29.4351 13.9171 28.1936C13.476 27.8506 13.2474 27.6546 12.9207 27.3769L12.0223 26.5765C11.4179 26.1028 10.8298 25.5311 10.2254 25.0574C9.03301 24.0119 7.84058 22.9992 6.5338 22.1335C5.88042 21.6924 5.2107 21.2677 4.44297 20.9084C4.06727 20.7287 3.6589 20.5653 3.21787 20.4347C2.77683 20.2876 2.3358 20.206 1.79675 20.1733Z" fill="#FF4F0A"/>
    <path fill-rule="evenodd" clip-rule="evenodd" d="M1.79675 20.206C2.04177 18.1315 3.00552 16.1877 4.55731 14.5379C6.09277 12.9044 8.5103 11.6303 11.1728 11.467C12.496 11.3853 13.8354 11.5323 15.0605 11.859C16.2856 12.202 17.429 12.6921 18.4744 13.2801C18.9972 13.5742 19.4709 13.9009 19.9609 14.2112L21.2513 15.1913L23.2605 16.7758C24.5673 17.8048 25.8087 18.7686 26.9521 19.569C28.1119 20.3694 29.092 20.9411 30.0394 21.2841C30.9705 21.6598 32.1466 21.7415 33.7147 21.3495C34.4824 21.1698 35.2991 20.8431 36.1649 20.4837C37.0143 20.1244 37.9127 19.6833 38.8928 19.2586C38.7784 20.304 38.5661 21.3331 38.1577 22.3132C37.7657 23.2933 37.2593 24.257 36.5569 25.1554C36.1975 25.5965 35.8055 26.0375 35.3481 26.4295C34.8908 26.8216 34.3844 27.1973 33.829 27.524C32.7183 28.161 31.3952 28.6347 30.0394 28.8144C28.6836 28.9777 27.3278 28.8961 26.0864 28.6347C24.845 28.3734 23.7179 27.965 22.6724 27.4913C20.5979 26.5275 18.8665 25.3188 17.331 24.0283C16.5633 23.3913 15.8446 22.7216 15.1585 22.0355L14.3581 21.2188C14.1131 20.9901 13.8681 20.7451 13.623 20.5327C12.643 19.667 11.7282 18.9973 10.7318 18.5889C9.7354 18.1479 8.46129 17.9845 6.89317 18.2785C5.32504 18.5889 3.62623 19.2586 1.79675 20.206Z" fill="#FAFAFA"/>
    <path fill-rule="evenodd" clip-rule="evenodd" d="M10.1276 30.8724C10.1276 31.5095 9.62118 32.0159 8.98412 32.0159C8.34707 32.0159 7.8407 31.5095 7.8407 30.8724C7.8407 30.2354 8.34707 29.729 8.98412 29.729C9.62118 29.729 10.1276 30.2354 10.1276 30.8724Z" fill="#FAFAFA"/>
    <path fill-rule="evenodd" clip-rule="evenodd" d="M10.1276 30.8724C10.1276 31.5095 9.62118 32.0159 8.98412 32.0159C8.34707 32.0159 7.8407 31.5095 7.8407 30.8724C7.8407 30.2354 8.34707 29.729 8.98412 29.729C9.62118 29.729 10.1276 30.2354 10.1276 30.8724Z" fill="#FAFAFA"/>
  </g>
  <defs>
    <clipPath id="clip0_12_389">
      <rect width="41" height="41" fill="white"/>
    </clipPath>
  </defs>
</svg>