<svg xmlns="http://www.w3.org/2000/svg" width="41" height="41" viewBox="0 0 41 41" fill="none">
  <path d="M20.5 41C31.8605 41 41 31.8605 41 20.5C41 9.13952 31.8605 0 20.5 0C9.13952 0 0 9.13952 0 20.5C0 31.8605 9.13952 41 20.5 41Z" fill="#2775CA"/>
  <path d="M26.1375 23.7457C26.1375 20.7561 24.3438 19.7311 20.7563 19.3041C18.1938 18.9624 17.6813 18.2791 17.6813 17.0832C17.6813 15.8872 18.5355 15.1186 20.2438 15.1186C21.7813 15.1186 22.6355 15.6311 23.0625 16.9124C23.148 17.1686 23.4043 17.3394 23.6605 17.3394H25.0271C25.3688 17.3394 25.625 17.0832 25.625 16.7416V16.6561C25.2833 14.7769 23.7458 13.3249 21.7813 13.1541V11.1041C21.7813 10.7624 21.525 10.5061 21.098 10.4207H19.8168C19.475 10.4207 19.2188 10.6769 19.1333 11.1041V13.0686C16.5708 13.4104 14.948 15.1186 14.948 17.2541C14.948 20.0729 16.6563 21.1832 20.2438 21.6104C22.6355 22.0374 23.4043 22.5499 23.4043 23.9166C23.4043 25.2834 22.2083 26.2229 20.5855 26.2229C18.3646 26.2229 17.5958 25.2832 17.3396 24.0019C17.2543 23.6604 16.998 23.4894 16.7418 23.4894H15.2896C14.948 23.4894 14.6918 23.7457 14.6918 24.0874V24.1729C15.0333 26.3082 16.4 27.8457 19.2188 28.2729V30.3229C19.2188 30.6644 19.475 30.9207 19.9021 31.0061H21.1833C21.525 31.0061 21.7813 30.7499 21.8668 30.3229V28.2729C24.4293 27.8457 26.1375 26.0519 26.1375 23.7457Z" fill="white"/>
  <path d="M16.1437 32.7145C9.48121 30.323 6.06447 22.8917 8.54169 16.3145C9.82294 12.727 12.6417 9.99376 16.1437 8.71251C16.4854 8.54175 16.6562 8.2855 16.6562 7.85828V6.66251C16.6562 6.32078 16.4854 6.06453 16.1437 5.97925C16.0582 5.97925 15.8875 5.97925 15.802 6.06453C7.68746 8.62703 3.24572 17.2542 5.80822 25.3688C7.34572 30.152 11.0187 33.825 15.802 35.3625C16.1437 35.5333 16.4854 35.3625 16.5707 35.0208C16.6562 34.9355 16.6562 34.85 16.6562 34.6792V33.4833C16.6562 33.227 16.4 32.8855 16.1437 32.7145ZM25.1979 6.06453C24.8562 5.89376 24.5145 6.06453 24.4292 6.40626C24.3437 6.49175 24.3437 6.57703 24.3437 6.748V7.94376C24.3437 8.2855 24.6 8.62703 24.8562 8.798C31.5187 11.1895 34.9354 18.6208 32.4582 25.198C31.177 28.7855 28.3582 31.5188 24.8562 32.8C24.5145 32.9708 24.3437 33.227 24.3437 33.6542V34.85C24.3437 35.1917 24.5145 35.448 24.8562 35.5333C24.9417 35.5333 25.1125 35.5333 25.1979 35.448C33.3125 32.8855 37.7542 24.2583 35.1917 16.1438C33.6542 11.275 29.8957 7.60203 25.1979 6.06453Z" fill="white"/>
</svg>