<svg xmlns="http://www.w3.org/2000/svg" width="25" height="23" viewBox="0 0 25 23" fill="none">
  <path d="M18.5806 17.6036C17.4231 17.6035 16.4814 16.6618 16.4814 15.5043V12.0182C16.4814 10.8607 17.4231 9.91901 18.5806 9.91901H24.0504C24.0836 9.91901 24.1165 9.92001 24.1493 9.92148V6.44869C24.1493 5.55475 23.4246 4.83008 22.5307 4.83008H2.46241C1.56842 4.83003 0.84375 5.5547 0.84375 6.44863V21.0738C0.84375 21.9678 1.56842 22.6925 2.46241 22.6925H22.5307C23.4246 22.6925 24.1493 21.9678 24.1493 21.0738V17.601C24.1165 17.6026 24.0836 17.6036 24.0504 17.6036H18.5806Z" fill="black"/>
  <path d="M24.0506 11.0693H18.5808C18.0567 11.0693 17.6318 11.4942 17.6318 12.0183V15.5045C17.6318 16.0285 18.0567 16.4534 18.5808 16.4534H24.0506C24.5746 16.4534 24.9995 16.0286 24.9995 15.5045V12.0183C24.9995 11.4942 24.5746 11.0693 24.0506 11.0693ZM20.4656 15.1309C19.7091 15.1309 19.0959 14.5177 19.0959 13.7613C19.0959 13.0049 19.7091 12.3917 20.4656 12.3917C21.222 12.3917 21.8352 13.0049 21.8352 13.7613C21.8352 14.5177 21.222 15.1309 20.4656 15.1309Z" fill="black"/>
  <path d="M19.7119 1.86517C19.3498 0.7691 18.1677 0.174127 17.0717 0.536253L8.84863 3.25293H20.1704L19.7119 1.86517Z" fill="black"/>
</svg>